{
  "accessors": [
    {
      "bufferView": 2,
      "componentType": 5126,
      "count": 294,
      "max": [
        1.3576149940490723,
        2.8001420497894287,
        7.110579967498779
      ],
      "min": [
        -1.3576149940490723,
        0.12827399373054504,
        4.3719282150268555
      ],
      "type": "VEC3"
    },
    {
      "bufferView": 2,
      "byteOffset": 3528,
      "componentType": 5126,
      "count": 294,
      "max": [
        0.9938855171203613,
        0.9986351132392883,
        0.9999097585678101
      ],
      "min": [
        -0.9931702613830566,
        -0.9214772582054138,
        -0.9965123534202576
      ],
      "type": "VEC3"
    },
    {
      "bufferView": 3,
      "componentType": 5126,
      "count": 294,
      "max": [
        0.9996897578239441,
        0.9890553951263428,
        0.9373711347579956,
        1.0
      ],
      "min": [
        -0.9993921518325806,
        -0.7067098021507263,
        -0.17276565730571747,
        1.0
      ],
      "type": "VEC4"
    },
    {
      "bufferView": 1,
      "componentType": 5126,
      "count": 294,
      "max": [
        0.4966430068016052,
        0.7626799941062927
      ],
      "min": [
        0.0124719999730587,
        0.300464004278183
      ],
      "type": "VEC2"
    },
    {
      "bufferView": 0,
      "componentType": 5125,
      "count": 1536,
      "type": "SCALAR"
    },
    {
      "bufferView": 2,
      "byteOffset": 7056,
      "componentType": 5126,
      "count": 3345,
      "max": [
        3.0152430534362793,
        1.0538840293884277,
        7.439813137054443
      ],
      "min": [
        -3.0152430534362793,
        -2.1822938919067383,
        0.0022929999977350235
      ],
      "type": "VEC3"
    },
    {
      "bufferView": 2,
      "byteOffset": 47196,
      "componentType": 5126,
      "count": 3345,
      "max": [
        0.9999719858169556,
        0.9989442229270935,
        0.9995124936103821
      ],
      "min": [
        -0.999962329864502,
        -0.9997886419296265,
        -0.9994834661483765
      ],
      "type": "VEC3"
    },
    {
      "bufferView": 3,
      "byteOffset": 4704,
      "componentType": 5126,
      "count": 3345,
      "max": [
        0.9999954700469971,
        0.9999751448631287,
        0.9999864101409912,
        1.0
      ],
      "min": [
        -0.9999221563339233,
        -0.9999316930770874,
        -0.99995356798172,
        -1.0
      ],
      "type": "VEC4"
    },
    {
      "bufferView": 1,
      "byteOffset": 2352,
      "componentType": 5126,
      "count": 3345,
      "max": [
        0.9394850134849548,
        0.9900000095367432
      ],
      "min": [
        0.009999999776482582,
        0.07061900198459625
      ],
      "type": "VEC2"
    },
    {
      "bufferView": 0,
      "byteOffset": 6144,
      "componentType": 5125,
      "count": 16746,
      "type": "SCALAR"
    },
    {
      "bufferView": 2,
      "byteOffset": 87336,
      "componentType": 5126,
      "count": 4543,
      "max": [
        2.4848830699920654,
        0.7288730144500732,
        8.191810607910156
      ],
      "min": [
        -2.4848830699920654,
        -1.7358020544052124,
        0.47981399297714233
      ],
      "type": "VEC3"
    },
    {
      "bufferView": 2,
      "byteOffset": 141852,
      "componentType": 5126,
      "count": 4543,
      "max": [
        0.9999984502792358,
        0.9999971389770508,
        0.9999811053276062
      ],
      "min": [
        -0.9999984502792358,
        -0.9999987483024597,
        -1.0
      ],
      "type": "VEC3"
    },
    {
      "bufferView": 3,
      "byteOffset": 58224,
      "componentType": 5126,
      "count": 4543,
      "max": [
        0.9999392628669739,
        0.9999936819076538,
        0.9999079704284668,
        1.0
      ],
      "min": [
        -0.9999889731407166,
        -0.9999146461486816,
        -0.999999463558197,
        -1.0
      ],
      "type": "VEC4"
    },
    {
      "bufferView": 1,
      "byteOffset": 29112,
      "componentType": 5126,
      "count": 4543,
      "max": [
        0.9900000095367432,
        0.9900000095367432
      ],
      "min": [
        0.009999999776482582,
        0.017576999962329865
      ],
      "type": "VEC2"
    },
    {
      "bufferView": 0,
      "byteOffset": 73128,
      "componentType": 5125,
      "count": 21270,
      "type": "SCALAR"
    }
  ],
  "asset": {
    "extras": {
      "author": "Wasabee (https://sketchfab.com/tinysnails)",
      "license": "CC-BY-4.0 (http://creativecommons.org/licenses/by/4.0/)",
      "source": "https://sketchfab.com/3d-models/robot-3975160d47d340dea781792db80ca1bb",
      "title": "Robot"
    },
    "generator": "Sketchfab-12.68.0",
    "version": "2.0"
  },
  "bufferViews": [
    {
      "buffer": 0,
      "byteLength": 158208,
      "name": "floatBufferViews",
      "target": 34963
    },
    {
      "buffer": 0,
      "byteLength": 65456,
      "byteOffset": 158208,
      "byteStride": 8,
      "name": "floatBufferViews",
      "target": 34962
    },
    {
      "buffer": 0,
      "byteLength": 196368,
      "byteOffset": 223664,
      "byteStride": 12,
      "name": "floatBufferViews",
      "target": 34962
    },
    {
      "buffer": 0,
      "byteLength": 130912,
      "byteOffset": 420032,
      "byteStride": 16,
      "name": "floatBufferViews",
      "target": 34962
    }
  ],
  "buffers": [
    {
      "byteLength": 550944,
      "uri": "scene.bin"
    }
  ],
  "images": [
    {
      "uri": "textures/blinn1SG_baseColor.png"
    },
    {
      "uri": "textures/blinn1SG_metallicRoughness.png"
    },
    {
      "uri": "textures/blinn1SG_normal.png"
    },
    {
      "uri": "textures/lambert3SG_baseColor.png"
    },
    {
      "uri": "textures/lambert3SG_metallicRoughness.png"
    },
    {
      "uri": "textures/lambert3SG_normal.png"
    },
    {
      "uri": "textures/low_poly_for_substance_painter_new_UVDefault_baseColor.png"
    },
    {
      "uri": "textures/low_poly_for_substance_painter_new_UVDefault_metallicRoughness.png"
    },
    {
      "uri": "textures/low_poly_for_substance_painter_new_UVDefault_normal.png"
    }
  ],
  "materials": [
    {
      "doubleSided": true,
      "name": "blinn1SG",
      "normalTexture": {
        "index": 2
      },
      "occlusionTexture": {
        "index": 1
      },
      "pbrMetallicRoughness": {
        "baseColorTexture": {
          "index": 0
        },
        "metallicRoughnessTexture": {
          "index": 1
        }
      }
    },
    {
      "doubleSided": true,
      "name": "lambert3SG",
      "normalTexture": {
        "index": 5
      },
      "occlusionTexture": {
        "index": 4
      },
      "pbrMetallicRoughness": {
        "baseColorTexture": {
          "index": 3
        },
        "metallicRoughnessTexture": {
          "index": 4
        }
      }
    },
    {
      "doubleSided": true,
      "name": "low_poly_for_substance_painter_new_UVDefault",
      "normalTexture": {
        "index": 8
      },
      "occlusionTexture": {
        "index": 7
      },
      "pbrMetallicRoughness": {
        "baseColorTexture": {
          "index": 6
        },
        "metallicRoughnessTexture": {
          "index": 7
        }
      }
    }
  ],
  "meshes": [
    {
      "name": "Object_0",
      "primitives": [
        {
          "attributes": {
            "NORMAL": 1,
            "POSITION": 0,
            "TANGENT": 2,
            "TEXCOORD_0": 3
          },
          "indices": 4,
          "material": 0,
          "mode": 4
        }
      ]
    },
    {
      "name": "Object_1",
      "primitives": [
        {
          "attributes": {
            "NORMAL": 6,
            "POSITION": 5,
            "TANGENT": 7,
            "TEXCOORD_0": 8
          },
          "indices": 9,
          "material": 1,
          "mode": 4
        }
      ]
    },
    {
      "name": "Object_2",
      "primitives": [
        {
          "attributes": {
            "NORMAL": 11,
            "POSITION": 10,
            "TANGENT": 12,
            "TEXCOORD_0": 13
          },
          "indices": 14,
          "material": 2,
          "mode": 4
        }
      ]
    }
  ],
  "nodes": [
    {
      "children": [
        1
      ],
      "matrix": [
        1.0,
        0.0,
        0.0,
        0.0,
        0.0,
        2.220446049250313e-16,
        -1.0,
        0.0,
        0.0,
        1.0,
        2.220446049250313e-16,
        0.0,
        0.0,
        0.0,
        0.0,
        1.0
      ],
      "name": "Sketchfab_model"
    },
    {
      "children": [
        2,
        3,
        4
      ],
      "name": "low_poly_texture_sets.obj.cleaner.materialmerger.gles"
    },
    {
      "mesh": 0,
      "name": "Object_2"
    },
    {
      "mesh": 1,
      "name": "Object_3"
    },
    {
      "mesh": 2,
      "name": "Object_4"
    }
  ],
  "samplers": [
    {
      "magFilter": 9729,
      "minFilter": 9987,
      "wrapS": 10497,
      "wrapT": 10497
    }
  ],
  "scene": 0,
  "scenes": [
    {
      "name": "Sketchfab_Scene",
      "nodes": [
        0
      ]
    }
  ],
  "textures": [
    {
      "sampler": 0,
      "source": 0
    },
    {
      "sampler": 0,
      "source": 1
    },
    {
      "sampler": 0,
      "source": 2
    },
    {
      "sampler": 0,
      "source": 3
    },
    {
      "sampler": 0,
      "source": 4
    },
    {
      "sampler": 0,
      "source": 5
    },
    {
      "sampler": 0,
      "source": 6
    },
    {
      "sampler": 0,
      "source": 7
    },
    {
      "sampler": 0,
      "source": 8
    }
  ]
}
